<svg width="247" height="172" viewBox="0 0 247 172" fill="none" xmlns="http://www.w3.org/2000/svg">
<path fill-rule="evenodd" clip-rule="evenodd" d="M222.753 40.1592H24.5925V26.4844C24.5925 23.518 27.0058 21.113 29.9823 21.113H217.364C220.34 21.113 222.753 23.518 222.753 26.4844V40.1592Z" fill="#4E5C93"/>
<path fill-rule="evenodd" clip-rule="evenodd" d="M38.4876 30.0554C38.4876 31.917 36.9825 33.4264 35.1259 33.4264C33.2695 33.4264 31.7646 31.917 31.7646 30.0554C31.7646 28.1937 33.2695 26.6843 35.1259 26.6843C36.9825 26.6843 38.4876 28.1937 38.4876 30.0554Z" fill="#FF7A46"/>
<path fill-rule="evenodd" clip-rule="evenodd" d="M51.0384 30.0554C51.0384 31.917 49.5336 33.4264 47.6769 33.4264C45.8206 33.4264 44.3157 31.917 44.3157 30.0554C44.3157 28.1937 45.8206 26.6843 47.6769 26.6843C49.5336 26.6843 51.0384 28.1937 51.0384 30.0554Z" fill="#FAAD14"/>
<path fill-rule="evenodd" clip-rule="evenodd" d="M63.5895 30.0554C63.5895 31.917 62.0846 33.4264 60.228 33.4264C58.3716 33.4264 56.8667 31.917 56.8667 30.0554C56.8667 28.1937 58.3716 26.6843 60.228 26.6843C62.0846 26.6843 63.5895 28.1937 63.5895 30.0554Z" fill="#BAE637"/>
<path fill-rule="evenodd" clip-rule="evenodd" d="M30.3955 171.093C27.0808 171.093 24.3933 168.692 24.3933 165.729V38.0061H222.564V165.729C222.564 168.692 219.877 171.093 216.562 171.093H30.3955Z" fill="#E4EBF7"/>
<path d="M207.381 49.5809H92.6308C91.3099 49.5809 90.239 50.6524 90.239 51.9742V159.093C90.239 160.415 91.3099 161.486 92.6308 161.486H207.381C208.702 161.486 209.773 160.415 209.773 159.093V51.9742C209.773 50.6524 208.702 49.5809 207.381 49.5809Z" fill="white"/>
<path d="M78.288 48.6906H39.2424C37.9214 48.6906 36.8506 49.7621 36.8506 51.0839V158.202C36.8506 159.524 37.9214 160.596 39.2424 160.596H78.288C79.6089 160.596 80.6798 159.524 80.6798 158.202V51.0839C80.6798 49.7621 79.6089 48.6906 78.288 48.6906Z" fill="white"/>
<path d="M69.9081 93.209H47.997C47.2467 93.209 46.6384 93.8176 46.6384 94.5684V97.9307C46.6384 98.6815 47.2467 99.2902 47.997 99.2902H69.9081C70.6585 99.2902 71.2667 98.6815 71.2667 97.9307V94.5684C71.2667 93.8176 70.6585 93.209 69.9081 93.209Z" fill="#597EF7"/>
<path d="M69.9287 104.784H47.9764C47.2375 104.784 46.6384 105.383 46.6384 106.123V109.342C46.6384 110.081 47.2375 110.681 47.9764 110.681H69.9287C70.6677 110.681 71.2667 110.081 71.2667 109.342V106.123C71.2667 105.383 70.6677 104.784 69.9287 104.784Z" fill="#AAC2FE"/>
<path d="M69.9287 116.359H47.9764C47.2375 116.359 46.6384 116.958 46.6384 117.697V120.917C46.6384 121.656 47.2375 122.256 47.9764 122.256H69.9287C70.6677 122.256 71.2667 121.656 71.2667 120.917V117.697C71.2667 116.958 70.6677 116.359 69.9287 116.359Z" fill="#FF7A46"/>
<path d="M69.9287 127.933H47.9764C47.2375 127.933 46.6384 128.533 46.6384 129.272V132.492C46.6384 133.231 47.2375 133.831 47.9764 133.831H69.9287C70.6677 133.831 71.2667 133.231 71.2667 132.492V129.272C71.2667 128.533 70.6677 127.933 69.9287 127.933Z" fill="#AAC2FE"/>
<path d="M171.932 131.495H103.401C102.52 131.495 101.806 132.209 101.806 133.09V133.097C101.806 133.978 102.52 134.692 103.401 134.692H171.932C172.813 134.692 173.527 133.978 173.527 133.097V133.09C173.527 132.209 172.813 131.495 171.932 131.495Z" fill="#597EF7"/>
<path d="M171.932 148.412H103.401C102.52 148.412 101.806 149.126 101.806 150.007V150.014C101.806 150.895 102.52 151.609 103.401 151.609H171.932C172.813 151.609 173.527 150.895 173.527 150.014V150.007C173.527 149.126 172.813 148.412 171.932 148.412Z" fill="#597EF7"/>
<path d="M195.839 139.508H103.401C102.52 139.508 101.806 140.223 101.806 141.104V141.11C101.806 141.991 102.52 142.706 103.401 142.706H195.839C196.72 142.706 197.434 141.991 197.434 141.11V141.104C197.434 140.223 196.72 139.508 195.839 139.508Z" fill="#597EF7"/>
<path d="M194.716 60.2653H104.995C103.234 60.2653 101.806 61.694 101.806 63.4564V121.181C101.806 122.943 103.234 124.372 104.995 124.372H194.716C196.478 124.372 197.905 122.943 197.905 121.181V63.4564C197.905 61.694 196.478 60.2653 194.716 60.2653Z" fill="#597EF7"/>
<path d="M59.5358 80.7916C65.6117 80.7916 70.5372 75.807 70.5372 69.6581C70.5372 63.5093 65.6117 58.5247 59.5358 58.5247C53.4599 58.5247 48.5344 63.5093 48.5344 69.6581C48.5344 75.807 53.4599 80.7916 59.5358 80.7916Z" fill="#FAAD14"/>
<path d="M59.5358 80.7916C62.7066 80.7934 65.7158 79.3758 67.7559 76.9192C66.1484 73.831 62.9831 71.8978 59.5341 71.8978C56.085 71.8978 52.9197 73.831 51.3123 76.9192C53.3534 79.3763 56.3639 80.7939 59.5358 80.7916Z" fill="#4E5C93"/>
<path d="M59.5943 72.3406C61.8794 72.3406 63.7319 70.4659 63.7319 68.1534C63.7319 65.8409 61.8794 63.9662 59.5943 63.9662C57.3092 63.9662 55.4568 65.8409 55.4568 68.1534C55.4568 70.4659 57.3092 72.3406 59.5943 72.3406Z" fill="#4E5C93"/>
<path d="M102.696 82.9697H198.211" stroke="white" stroke-width="1.25635" stroke-linecap="round" stroke-linejoin="round"/>
<path d="M124.052 124.372V59.8949" stroke="white" stroke-width="1.25635" stroke-linecap="round" stroke-linejoin="round"/>
<path d="M149.856 124.372V59.8949" stroke="white" stroke-width="1.25635" stroke-linecap="round" stroke-linejoin="round"/>
<path d="M174.771 124.372V59.8949" stroke="white" stroke-width="1.25635" stroke-linecap="round" stroke-linejoin="round"/>
<path d="M102.618 104.249H198.133" stroke="white" stroke-width="1.25635" stroke-linecap="round" stroke-linejoin="round"/>
<path fill-rule="evenodd" clip-rule="evenodd" d="M208.944 0.426636C193.803 0.426636 181.53 12.7082 181.53 27.8582C181.53 43.0082 193.803 55.2898 208.944 55.2898C224.084 55.2898 236.358 43.0082 236.358 27.8582C236.358 12.7082 224.084 0.426636 208.944 0.426636Z" fill="#7CB305"/>
<path fill-rule="evenodd" clip-rule="evenodd" d="M204.526 37.1766L202.796 35.4447L219.567 18.6012C220.141 18.0272 221.071 18.0272 221.644 18.6012L222.337 19.2939C222.91 19.8678 222.91 20.7983 222.337 21.3722L206.603 37.1766C206.03 37.7505 205.1 37.7505 204.526 37.1766Z" fill="white"/>
<path fill-rule="evenodd" clip-rule="evenodd" d="M208.331 35.4447L206.6 37.1765C206.027 37.7505 205.097 37.7505 204.523 37.1765L197.631 30.2803C197.058 29.7065 197.058 28.776 197.631 28.2021L198.324 27.5094C198.897 26.9354 199.827 26.9354 200.401 27.5094L208.331 35.4447Z" fill="white"/>
<path fill-rule="evenodd" clip-rule="evenodd" d="M30.4481 132.66H17.0566V86.7499C17.0566 83.0956 20.0387 80.1332 23.7174 80.1332H23.7873C27.4659 80.1332 30.4481 83.0956 30.4481 86.7499V132.66Z" fill="#BAE637"/>
<path fill-rule="evenodd" clip-rule="evenodd" d="M37.1074 143.897H23.677V119.924C23.677 116.366 26.5933 113.482 30.1908 113.482H30.5938C34.1911 113.482 37.1074 116.366 37.1074 119.924V143.897Z" fill="#389E0D"/>
<path fill-rule="evenodd" clip-rule="evenodd" d="M19.0212 132.636H5.50122V106.571C5.50122 102.993 8.42516 100.093 12.0319 100.093H12.4905C16.0973 100.093 19.0212 102.993 19.0212 106.571V132.636Z" fill="#7CB305"/>
<path fill-rule="evenodd" clip-rule="evenodd" d="M37.9063 170.713H2.73562C1.34544 170.713 0.218506 169.598 0.218506 168.221V133.601C0.218506 132.224 1.34544 131.108 2.73562 131.108H37.9063C39.2965 131.108 40.4234 132.224 40.4234 133.601V168.221C40.4234 169.598 39.2965 170.713 37.9063 170.713Z" fill="#4E5C93"/>
<path d="M236.146 130.389C236.146 120.172 227.866 111.802 217.652 111.802C207.438 111.802 199.157 120.172 199.157 130.389C199.157 134.433 201.303 139.656 204.749 143.508C208.166 147.324 209.139 153.748 209.139 158.871V160.879H226.165V158.888C226.165 153.765 227.138 147.353 230.537 143.524C233.994 139.634 236.146 133.946 236.146 130.389Z" fill="#FFE58F"/>
<path d="M233.102 130.339C233.102 121.805 226.187 114.812 217.652 114.812C209.117 114.812 202.203 121.804 202.203 130.339C202.203 133.72 203.995 138.081 206.874 141.298C209.728 144.487 211.847 149.853 211.847 154.133V155.809H223.457V154.147C223.457 149.867 225.576 144.51 228.416 141.312C231.305 138.062 233.102 133.311 233.102 130.34V130.339Z" fill="#FAAD14"/>
<path d="M222.346 170.252H212.958C212.63 170.252 212.33 170.038 212.152 169.688L210.875 166.382H224.43L223.153 169.688C222.974 170.038 222.675 170.252 222.347 170.252H222.346Z" fill="#4E5C93"/>
<path d="M224.625 153.238H210.678C209.641 153.238 208.801 154.079 208.801 155.116V165.928C208.801 166.964 209.641 167.805 210.678 167.805H224.625C225.662 167.805 226.502 166.964 226.502 165.928V155.116C226.502 154.079 225.662 153.238 224.625 153.238Z" fill="#597EF7"/>
<path d="M208.824 157.454H218.796" stroke="white" stroke-width="0.882739" stroke-linecap="round" stroke-linejoin="round"/>
<path d="M208.824 163.93H218.796" stroke="white" stroke-width="0.882739" stroke-linecap="round" stroke-linejoin="round"/>
<path d="M216.473 160.692H226.445" stroke="white" stroke-width="0.882739" stroke-linecap="round" stroke-linejoin="round"/>
<path d="M218.913 122.919L211.941 133.545C211.566 134.121 211.97 134.829 212.646 134.829H215.769L211.929 142.087C211.643 142.674 212.381 143.218 212.833 142.754L223.276 132.256C223.809 131.71 223.43 130.777 222.676 130.777H217.954L219.93 123.382C220.084 122.751 219.264 122.381 218.913 122.919Z" fill="white"/>
</svg>
