<svg width="204" height="43" viewBox="0 0 204 43" fill="none" xmlns="http://www.w3.org/2000/svg">
<path d="M71.0867 37.2472C71.0867 35.3422 71.796 33.5182 74.4712 33.5182C75.0691 33.5182 75.7075 33.6398 76.1331 33.7614L75.9507 34.7747C75.5251 34.6126 74.9981 34.5112 74.5117 34.5112C72.9107 34.5112 72.2824 35.6361 72.2824 37.2675C72.2824 38.8078 73.0019 39.7806 74.5421 39.7806C75.0285 39.7806 75.6872 39.659 76.0621 39.5272L76.1837 40.5507C75.7987 40.6723 75.1197 40.7939 74.5016 40.7939C71.8467 40.7939 71.0867 39.1219 71.0867 37.2472Z" fill="#231F20"/>
<path d="M78.0569 39.1114C78.0569 39.7498 78.594 39.8917 78.9588 39.8917C79.6073 39.8917 80.1038 39.4255 80.2153 38.9087V38.169C78.5636 38.2602 78.0569 38.4021 78.0569 39.1114ZM81.6137 40.5909L80.6916 40.753C80.5092 40.5199 80.4078 40.2058 80.3572 39.8917C80.043 40.4794 79.4046 40.7834 78.746 40.7834C77.9353 40.7834 77.0334 40.3781 77.0334 39.1317C77.0334 37.8549 77.7124 37.48 80.2153 37.3685V37.0138C80.2153 36.4767 80.114 36.1119 79.2729 36.1119C78.7358 36.1119 78.1988 36.2639 77.6921 36.5375L77.4489 35.6255C77.9252 35.4026 78.6852 35.2101 79.3945 35.2101C80.7929 35.2101 81.2388 35.7876 81.2388 37.0036V39.0607C81.2489 39.7397 81.3705 40.297 81.6137 40.5909Z" fill="#231F20"/>
<path d="M85.0981 39.8589V40.6898L84.5914 40.71C83.6895 40.7506 83.1018 40.4263 83.1018 39.4535V36.2919H82.2607V35.4306H83.1018V34.2247L84.1861 33.9511V35.4306H85.2906V36.2919H84.1861V39.0482C84.1861 39.6663 84.3279 39.8589 84.7839 39.8589H85.0981Z" fill="#231F20"/>
<path d="M89.1602 35.2655C90.5181 35.2655 90.893 36.1268 90.893 37.0692V40.6666H89.8087V37.3429C89.8087 36.6639 89.5757 36.1674 88.8359 36.1674C88.3293 36.1674 87.8125 36.4106 87.5287 36.7551V40.6666H86.4343V33.4213L87.5287 33.249V35.914C87.8834 35.5695 88.5015 35.2655 89.1602 35.2655Z" fill="#231F20"/>
<path d="M93.1847 39.1114C93.1847 39.7498 93.7218 39.8917 94.0765 39.8917C94.7351 39.8917 95.2317 39.4255 95.333 38.9087V38.169C93.6813 38.2602 93.1847 38.4021 93.1847 39.1114ZM96.7415 40.5909L95.8194 40.753C95.637 40.5199 95.5255 40.2058 95.485 39.8917C95.1709 40.4794 94.5325 40.7834 93.8839 40.7834C93.0834 40.7834 92.1714 40.3781 92.1714 39.1317C92.1714 37.8549 92.8605 37.48 95.3533 37.3685V37.0138C95.3533 36.4767 95.2519 36.1119 94.4109 36.1119C93.8738 36.1119 93.3469 36.2639 92.8301 36.5375L92.597 35.6255C93.0834 35.4026 93.8231 35.2101 94.5325 35.2101C95.9309 35.2101 96.3869 35.7876 96.3869 37.0036V39.0607C96.3767 39.7397 96.4983 40.297 96.7415 40.5909Z" fill="#231F20"/>
<path d="M101.114 35.3717H102.32C101.884 36.6991 101.054 39.121 100.527 40.4788C100.081 41.6036 99.6349 42.3839 99.2397 42.8298L98.1757 42.3636C98.581 41.9684 99.0674 41.2591 99.4626 40.2964L97.4055 35.3615H98.6317L100.02 39.1109C100.395 38.0266 100.841 36.4357 101.114 35.3717Z" fill="#231F20"/>
<path d="M108.592 40.8197C107.031 40.8197 105.825 39.9887 105.825 38.3978V33.6655H106.95V38.0127C106.95 39.0564 107.315 39.8468 108.612 39.8468C109.889 39.8468 110.274 39.0564 110.274 38.0127V33.6655H111.388V38.3978C111.399 39.9887 110.193 40.8197 108.592 40.8197Z" fill="#231F20"/>
<path d="M114.038 35.2881C114.109 35.4705 114.19 35.7948 114.211 35.9772C114.555 35.6022 115.234 35.2578 115.893 35.2578C117.271 35.2578 117.625 36.1191 117.625 37.0615V40.6588H116.531V37.3351C116.531 36.6561 116.298 36.1596 115.568 36.1596C115.052 36.1596 114.535 36.4028 114.251 36.717V40.6486H113.157V36.5041C113.157 36.1191 113.116 35.7238 113.025 35.4097L114.038 35.2881Z" fill="#231F20"/>
<path d="M120.399 40.6621H119.294V35.3623H120.399V40.6621ZM120.429 34.5719H119.284V33.5687H120.429V34.5719Z" fill="#231F20"/>
<path d="M124.277 39.8589V40.6898L123.78 40.71C122.879 40.7506 122.291 40.4263 122.291 39.4535V36.2919H121.45V35.4306H122.281V34.2247L123.365 33.9511V35.4306H124.469V36.2919H123.365V39.0482C123.365 39.6663 123.507 39.8589 123.963 39.8589H124.277Z" fill="#231F20"/>
<path d="M127.734 36.0376C126.964 36.0376 126.508 36.7267 126.457 37.436H128.899C128.889 36.5646 128.585 36.0376 127.734 36.0376ZM128.089 39.8883C128.626 39.8883 129.213 39.7667 129.629 39.5843L129.821 40.4659C129.487 40.628 128.798 40.8205 127.987 40.8205C126.082 40.8205 125.322 39.6451 125.322 38.0846C125.322 36.4531 126.173 35.1864 127.835 35.1864C129.305 35.1864 129.882 36.1896 129.882 37.5678V38.2062H126.417C126.407 39.3512 127.045 39.8883 128.079 39.8883H128.089Z" fill="#231F20"/>
<path d="M134.753 37.5983C134.753 37.3044 134.743 37.0207 134.693 36.7775C134.49 36.4735 134.044 36.1391 133.446 36.1391C132.463 36.1391 132.139 36.97 132.139 38.105C132.139 39.1082 132.463 39.8783 133.335 39.8783C134.085 39.8783 134.541 39.3716 134.703 39.0068C134.743 38.8346 134.763 38.5407 134.763 38.2975V37.5983H134.753ZM133.091 40.7903C131.713 40.7903 131.014 39.777 131.014 38.1151C131.014 36.5546 131.592 35.2169 133.254 35.2169C133.831 35.2169 134.399 35.4601 134.723 35.7945V33.4132L135.787 33.241V38.8447C135.787 39.5135 135.807 40.0708 136 40.5369L135.057 40.7194C134.926 40.5066 134.855 40.1924 134.824 39.9492C134.571 40.3039 134.024 40.7903 133.091 40.7903Z" fill="#231F20"/>
<path d="M141.156 39.7274H142.129C142.879 39.7274 143.547 39.5654 143.547 38.5723C143.547 37.8123 143.041 37.4374 142.108 37.4374H141.156V39.7274ZM143.335 35.5728C143.335 34.8533 142.848 34.5797 141.946 34.5797H141.156V36.6166H142.402C142.929 36.5355 143.335 36.2416 143.335 35.5728ZM144.682 38.6939C144.682 40.1429 143.628 40.6699 142.21 40.6699H140.062V33.6677H142.078C143.254 33.6677 144.409 33.992 144.409 35.3904C144.409 36.2011 143.973 36.7179 143.335 36.9307C143.912 37.032 144.692 37.4373 144.692 38.6939H144.682Z" fill="#231F20"/>
<path d="M146.792 39.1114C146.792 39.7498 147.34 39.8917 147.704 39.8917C148.333 39.8917 148.839 39.4255 148.961 38.9087V38.169C147.299 38.2602 146.792 38.4021 146.792 39.1114ZM150.359 40.5909L149.437 40.753C149.255 40.5199 149.143 40.2058 149.093 39.8917C148.789 40.4794 148.15 40.7834 147.492 40.7834C146.681 40.7834 145.779 40.3781 145.779 39.1317C145.779 37.8549 146.458 37.48 148.961 37.3685V37.0138C148.961 36.4767 148.86 36.1119 148.008 36.1119C147.461 36.1119 146.934 36.2639 146.428 36.5375L146.184 35.6255C146.671 35.4026 147.411 35.2101 148.13 35.2101C149.518 35.2101 149.974 35.7876 149.974 37.0036V39.0607C149.984 39.7397 150.116 40.297 150.359 40.5909Z" fill="#231F20"/>
<path d="M152.562 35.2881C152.643 35.4705 152.724 35.7948 152.744 35.9772C153.089 35.6022 153.758 35.2578 154.426 35.2578C155.804 35.2578 156.159 36.1191 156.159 37.0615V40.6588H155.065V37.3351C155.065 36.6561 154.832 36.1596 154.092 36.1596C153.585 36.1596 153.058 36.4028 152.775 36.717V40.6486H151.68V36.5041C151.68 36.1191 151.64 35.7238 151.559 35.4097L152.562 35.2881Z" fill="#231F20"/>
<path d="M162.273 40.662H160.956L158.929 38.0577V40.662H157.825V33.4167L158.929 33.2444V37.9463L160.926 35.3623H162.192L160.044 37.9158L162.273 40.662Z" fill="#231F20"/>
<path d="M152.359 17.6291H149.532V15.8861H152.359V17.6291ZM152.359 20.7096H149.532V18.9565H152.359V20.7096ZM147.343 17.6291H144.516V15.8861H147.343V17.6291ZM147.343 20.7096H144.516V18.9565H147.343V20.7096ZM157.608 17.6291H154.558V15.8861H156.23C156.342 15.8861 156.423 15.8152 156.423 15.7037V14.7411C156.423 14.6397 156.342 14.5587 156.23 14.5587H140.655C140.554 14.5587 140.463 14.6397 140.463 14.7411V15.7037C140.463 15.8152 140.554 15.8861 140.655 15.8861H142.327V17.6291H139.277C139.166 17.6291 139.085 17.7203 139.085 17.8216V18.7843C139.085 18.8856 139.166 18.9667 139.277 18.9667H142.327V20.7197H140.655C140.554 20.7197 140.463 20.8008 140.463 20.9123V21.8749C140.463 21.9763 140.554 22.0675 140.655 22.0675H147.343V23.8104H139.277C139.166 23.8104 139.085 23.9016 139.085 24.0029V24.9656C139.085 25.0669 139.166 25.148 139.277 25.148H147.343V26.364C147.343 26.9315 147.799 27.3875 148.367 27.3875H149.299C149.431 27.3875 149.532 27.276 149.532 27.1544V25.148H157.608C157.71 25.148 157.791 25.0669 157.791 24.9656V24.0029C157.791 23.9016 157.7 23.8104 157.608 23.8104H149.532V22.0675H156.23C156.342 22.0675 156.423 21.9864 156.423 21.8749V20.9123C156.423 20.8008 156.342 20.7197 156.23 20.7197H154.558V18.9667H157.608C157.71 18.9667 157.791 18.8856 157.791 18.7843V17.8216C157.791 17.7101 157.71 17.6291 157.608 17.6291ZM110.833 25.3709C109.161 24.5907 107.205 23.9016 105.472 23.4963C105.3 23.4456 105.28 23.5773 105.28 23.5773L104.945 24.3069C104.945 24.3069 104.854 24.4691 105.016 24.5197C106.688 25.2392 108.168 25.8269 109.728 26.7693C109.901 26.8403 110.083 26.8301 110.205 26.6781C110.488 26.2627 110.61 26.06 110.904 25.6243C110.955 25.5229 110.924 25.4216 110.833 25.3709ZM101.226 24.1347C101.166 23.7395 101.156 23.7901 101.074 23.3848C101.074 23.3139 101.004 23.2429 100.892 23.2835C99.0377 24.2461 97.1934 24.7224 95.187 25.2899C95.0756 25.3304 95.035 25.4115 95.0857 25.5229C95.2478 25.8776 95.5214 26.4856 95.643 26.7389C95.6836 26.8403 95.8153 26.9011 95.947 26.8504C97.5785 26.3032 99.6457 25.2595 101.145 24.388C101.237 24.3272 101.237 24.2563 101.226 24.1347ZM112.13 17.396H100.517C100.933 16.8589 101.308 16.3219 101.642 15.8051H109.931C110.043 15.8051 110.124 15.7139 110.124 15.6125V14.6195C110.124 14.508 110.043 14.4269 109.931 14.4269H102.483C102.807 13.8595 103.081 13.3224 103.314 12.8461H111.461C111.573 12.8461 111.654 12.7651 111.654 12.6637V11.6504C111.654 11.5491 111.573 11.468 111.461 11.468H103.922C104.003 11.2653 104.064 11.1032 104.114 10.9613C104.175 10.7789 104.165 10.6371 103.952 10.5965C103.517 10.4952 102.605 10.3128 102.351 10.2419C101.987 10.1507 101.936 10.5053 101.936 10.5053L101.794 10.9816C101.743 11.1235 101.682 11.2856 101.622 11.4579H94.8932C94.7918 11.4579 94.7108 11.5491 94.7108 11.6403V12.6536C94.7108 12.7549 94.7918 12.836 94.8932 12.836H101.064C100.841 13.3224 100.578 13.8696 100.284 14.4168H96.3929C96.2916 14.4168 96.2105 14.4979 96.2105 14.6093V15.6024C96.2105 15.7037 96.2916 15.7949 96.3929 15.7949H99.4937C99.1593 16.3219 98.7945 16.8589 98.3892 17.3859H94.1737C94.0724 17.3859 93.9812 17.4568 93.9812 17.5581V18.5715C93.9812 18.6728 94.0724 18.7539 94.1737 18.7539H97.2238C96.322 19.6963 95.3086 20.5171 94.1636 21.0541C93.8697 21.1453 94.0116 21.4189 94.0116 21.4189L94.2345 21.956C94.2345 21.956 94.3054 22.1688 94.5689 22.0776C95.2884 21.8243 95.9572 21.4797 96.6057 21.0744C98.0953 21.4392 99.8585 22.2397 100.304 22.4323C100.446 22.5032 100.507 22.3816 100.507 22.3816L101.044 21.2467C101.044 21.2467 101.135 21.1048 100.983 21.044C100.365 20.7704 98.9668 20.3752 97.8825 20.132C98.4094 19.7064 98.8958 19.2403 99.362 18.7539H106.628C107.063 19.2099 107.56 19.6456 108.097 20.0509C107.236 20.4563 105.827 20.7704 105.057 20.8616C104.956 20.8717 104.905 20.9427 104.935 21.0541C105.087 21.5 105.138 21.8547 105.28 22.3005C105.32 22.4525 105.391 22.4525 105.493 22.4221C106.02 22.3512 108.249 21.5101 109.242 20.8413C110.043 21.3379 110.894 21.7635 111.735 22.0776C111.998 22.1688 112.079 21.956 112.079 21.956L112.292 21.4189C112.292 21.4189 112.434 21.1555 112.14 21.0541C110.995 20.5171 109.708 19.6963 108.745 18.7539H112.14C112.241 18.7539 112.323 18.6728 112.323 18.5715V17.5581C112.323 17.4669 112.241 17.396 112.13 17.396ZM103.233 19.6963H102.189C102.057 19.6963 101.956 19.7875 101.956 19.9192V25.3608C101.936 25.8675 101.855 26.1411 101.024 26.1411H100.548C100.477 26.1411 100.487 26.212 100.487 26.212V27.0936C100.487 27.2557 100.608 27.3773 100.76 27.3773H101.632C103.598 27.3773 104.216 27.1139 104.216 25.4013L104.226 20.6995C104.236 20.1421 103.78 19.6963 103.233 19.6963ZM87.1412 26.1411H73.37V14.8424H81.4665C81.7198 16.6765 82.2164 19.0579 83.1892 21.2669C82.3481 22.4728 81.3652 23.5672 80.1998 24.3475C80.0985 24.4184 80.1694 24.5299 80.1694 24.5299L80.5444 25.2291C80.5444 25.2291 80.595 25.3709 80.7166 25.2899C81.9225 24.6109 82.9561 23.6685 83.8377 22.6045C84.4356 23.6787 85.1652 24.6717 86.067 25.4824C86.1481 25.5939 86.2494 25.5027 86.2494 25.5027L86.8068 24.8541C86.8068 24.8541 86.8777 24.7933 86.7966 24.7123C85.9454 23.6989 85.2868 22.5539 84.77 21.3885C85.3982 20.4765 85.9353 19.4936 86.4014 18.5512C86.4825 18.3891 86.3406 18.3587 86.3406 18.3587L85.1652 17.8824C85.1652 17.8824 85.0334 17.8317 84.9929 17.9635C84.7396 18.5512 84.4558 19.1592 84.1316 19.7469C83.5641 17.9837 83.2702 16.2611 83.1284 14.8525H86.1076C86.1076 14.8525 86.523 14.8525 86.5028 14.3357C86.3305 13.4035 86.1582 12.4813 86.0569 11.9544H87.1412V26.1411ZM73.37 11.9443H81.2233C81.2233 12.2584 81.2436 12.8461 81.3246 13.6061H73.37V11.9443ZM83.0068 11.9443H84.4052C84.4761 12.3192 84.5876 12.8968 84.6889 13.6061H83.0372C82.9966 12.8461 82.9966 12.2584 83.0068 11.9443ZM88.4078 10.7181H72.0932C71.5358 10.7181 71.0798 11.1741 71.0798 11.7213V26.364C71.0798 26.9213 71.5358 27.3672 72.083 27.3672H88.3977C88.955 27.3672 89.4009 26.9213 89.4009 26.364L89.411 11.7213C89.4212 11.1741 88.9652 10.7181 88.4078 10.7181ZM76.4505 16.9704H78.6596V19.7469H76.4505V16.9704ZM75.2345 20.7907H79.8756C80.4228 20.7907 80.8788 20.3448 80.8889 19.7875V16.9197C80.8889 16.3725 80.4329 15.9165 79.8756 15.9165H75.2345C74.6873 15.9165 74.2414 16.3725 74.2414 16.9197V19.7875C74.2414 20.3549 74.6873 20.7907 75.2345 20.7907ZM80.8788 22.6349V21.7837C80.8788 21.6317 80.747 21.6723 80.747 21.6723C78.4366 22.3309 75.6905 22.564 74.434 22.5944H74.4238C74.3225 22.5944 74.2414 22.6755 74.2414 22.7869V24.1651C74.2414 24.2664 74.3225 24.3576 74.4238 24.3576H74.434H74.4441C75.8526 24.3069 78.9028 23.6584 80.7673 22.8275C80.7572 22.8173 80.8788 22.7667 80.8788 22.6349ZM203.026 15.7037H191.849C191.748 15.7037 191.667 15.7848 191.667 15.8861V16.9197C191.667 17.0211 191.748 17.1021 191.849 17.1021H198.263V25.3608C198.253 25.8675 198.121 26.1411 197.29 26.1411H196.46C196.409 26.1411 196.389 26.1816 196.389 26.2019V27.1848C196.389 27.2861 196.47 27.3672 196.581 27.3672H196.672H197.939H198.344C200.027 27.3165 200.594 26.972 200.594 25.3507V17.092H203.036C203.137 17.092 203.229 17.0109 203.229 16.9096V15.876C203.219 15.7848 203.127 15.7037 203.026 15.7037ZM192.964 12.4003H202.195C202.296 12.4003 202.377 12.3192 202.377 12.2077V11.1944C202.377 11.0829 202.296 11.0019 202.195 11.0019H192.964C192.862 11.0019 192.781 11.0728 192.781 11.1944V12.2077C192.781 12.3192 192.862 12.4003 192.964 12.4003ZM126.215 16.4941H130.025V21.3176H126.215V16.4941ZM134.879 15.1059H132.356V11.5795C132.356 11.0221 131.9 10.5661 131.333 10.5661L130.248 10.556C130.137 10.556 130.046 10.6573 130.025 10.7688L130.015 10.7891V15.1059H126.215V10.7891C126.215 10.6573 126.114 10.556 125.982 10.556H124.918C124.351 10.556 123.885 11.0221 123.885 11.5795V15.1059H120.571V11.2451C120.571 11.1133 120.47 11.0221 120.338 11.0221H119.264C118.707 11.0221 118.24 11.4781 118.24 12.0456V15.116H116.518C116.416 15.116 116.335 15.1971 116.335 15.3085V16.3219C116.335 16.4232 116.416 16.5043 116.518 16.5043H118.24V26.3437C118.24 26.9112 118.696 27.3672 119.264 27.3672H133.998C134.119 27.3672 134.241 27.2659 134.241 27.1341V26.2019C134.241 26.0803 134.129 25.9688 133.998 25.9688H120.571V16.4941H123.885V21.6925C123.885 22.26 124.331 22.716 124.908 22.716H131.312C131.88 22.716 132.346 22.26 132.346 21.6925V16.484H134.869C134.971 16.484 135.052 16.4029 135.052 16.3016V15.2883C135.052 15.1869 134.981 15.1059 134.879 15.1059ZM157.608 11.468H153.403C153.352 10.9512 152.927 10.556 152.39 10.556H151.457C151.336 10.556 151.214 10.6675 151.214 10.7891V11.468H145.651V10.7891C145.651 10.6675 145.54 10.556 145.418 10.556H144.476C143.949 10.556 143.523 10.9613 143.462 11.468H139.267C139.156 11.468 139.075 11.5491 139.075 11.6605V12.6232C139.075 12.7245 139.156 12.8157 139.267 12.8157H143.452V13.5656C143.452 13.6872 143.564 13.7987 143.685 13.7987H145.408C145.54 13.7987 145.641 13.6872 145.641 13.5656V12.8157H151.204V13.5656C151.204 13.6872 151.316 13.7987 151.437 13.7987H153.16C153.281 13.7987 153.393 13.6872 153.393 13.5656V12.8157H157.588C157.689 12.8157 157.77 12.7245 157.77 12.6232V11.6605C157.791 11.5491 157.71 11.468 157.608 11.468ZM172.585 17.4163V15.3187H177.632L177.622 17.4163H172.585ZM172.585 12.228V11.7923H177.632V13.9101H172.585V12.228ZM180.55 25.756C179.699 25.1683 178.838 24.3677 178.078 23.4253C178.655 22.3208 179.04 21.1149 179.324 19.9395C179.385 19.5747 179.071 19.6253 179.071 19.6253H177.713C177.612 20.4867 177.399 21.348 177.135 22.0877C176.527 21.0744 176.102 19.9597 175.929 18.8349H178.25H178.26H179.182C179.304 18.8349 179.415 18.7336 179.415 18.612V18.0243V11.2653C179.415 10.6776 178.898 10.3837 178.453 10.3837H171.005C170.883 10.3837 170.772 10.4851 170.772 10.6067V27.124C170.772 27.2557 170.873 27.3672 171.005 27.3672H171.015C172.079 27.3064 174.035 26.9011 175.686 26.2931C175.686 26.2931 175.696 26.2931 175.707 26.2829C175.788 26.2525 175.848 26.1715 175.848 26.0701V24.996C175.848 24.996 175.848 24.9352 175.777 24.9453C174.632 25.1987 173.518 25.3608 172.575 25.4723V18.8248H173.801C174.835 22.6045 177.196 25.6648 180.226 27.3469C180.246 27.3571 180.287 27.3672 180.317 27.3672C180.449 27.3672 180.54 27.2557 180.54 27.1341H180.55L180.54 27.124L180.55 25.756ZM169.87 24.4083C168.968 24.6717 168.015 24.8947 167.073 25.0771V19.5139H169.627C169.748 19.5139 169.849 19.4125 169.849 19.2909L169.86 18.5208C169.86 18.3891 169.748 18.2776 169.627 18.2776H167.073V16.5752H169.029C169.16 16.5752 169.262 16.4637 169.262 16.332V15.5619C169.262 15.4301 169.16 15.3288 169.029 15.3288H163.324C163.192 15.3288 163.09 15.42 163.09 15.5619V16.332C163.09 16.4637 163.192 16.5752 163.324 16.5752H165.269V18.2776H162.726C162.594 18.2776 162.493 18.3789 162.493 18.5208V19.2909C162.493 19.4125 162.604 19.5139 162.726 19.5139H165.269V25.3912C163.952 25.5939 162.787 25.7053 162.057 25.7256H162.047C161.915 25.7357 161.814 25.8269 161.814 25.9587V27.1341C161.814 27.2557 161.925 27.3672 162.047 27.3672H162.057H162.067C163.8 27.2963 167.499 26.6072 169.779 25.5736C169.779 25.5736 169.92 25.5128 169.92 25.3608V24.4488C169.931 24.4184 169.91 24.388 169.87 24.4083ZM167.701 10.3837H164.681C164.388 10.3635 164.185 10.5459 164.124 10.8195C164.084 10.9107 164.063 11.0019 164.023 11.0931C163.415 12.7245 162.594 13.8189 161.824 14.6093V15.5619C161.824 15.6733 161.915 15.7544 162.016 15.7544C162.016 15.7544 162.057 15.7544 162.077 15.7443C162.118 15.724 162.138 15.7037 162.158 15.6936C164.114 14.5587 165.37 13.2109 166.181 11.6605C166.921 13.0691 168.036 14.2648 169.687 15.3592C169.708 15.3693 169.738 15.3896 169.758 15.4099C169.789 15.4099 169.809 15.42 169.829 15.42C169.91 15.42 169.981 15.3693 170.012 15.2984V14.1533C169.414 13.5149 168.826 12.3395 168.36 11.0931C168.228 10.7587 168.167 10.3635 167.701 10.3837ZM169.525 20.4563H168.208C168.076 20.4563 167.965 20.5677 167.965 20.6893L167.782 24.0232C167.782 24.0435 167.813 24.0637 167.823 24.0637H169.008C169.089 24.0637 169.15 24.0029 169.15 23.9219L169.657 20.5981C169.657 20.5171 169.596 20.4563 169.525 20.4563ZM163.324 24.0536H164.519C164.54 24.0536 164.56 24.0333 164.56 24.0131L164.377 20.6792C164.377 20.5576 164.266 20.4461 164.134 20.4461H162.827C162.756 20.4461 162.685 20.5069 162.685 20.5779L163.182 23.9117C163.192 23.9928 163.243 24.0536 163.324 24.0536ZM190.896 10.3837H188.961C188.312 11.2147 186.995 13.0792 184.674 13.8595L184.593 13.9203V13.9507V14.8931C184.593 14.8931 184.533 15.3187 184.938 15.1667C188.88 13.8493 190.207 11.8429 191.028 10.6269C191.18 10.3533 190.896 10.3837 190.896 10.3837ZM190.886 14.4675H188.951C188.302 15.3085 186.975 17.1629 184.664 17.9533V17.9432C184.664 17.9432 184.583 18.004 184.583 18.0344V18.9768C184.583 18.9768 184.523 19.3923 184.938 19.2504C185.617 19.0275 186.195 18.7843 186.721 18.5208V26.3437C186.721 26.9112 187.177 27.3672 187.755 27.3672H188.819C188.951 27.3672 189.052 27.2557 189.052 27.1341V17.0312C190.035 16.18 190.603 15.3491 191.018 14.7208C191.17 14.4269 190.886 14.4675 190.886 14.4675Z" fill="#231F20"/>
<path d="M23.5772 2.31278C22.7038 2.89978 21.3723 3.24346 20.0409 3.10029C16.7765 2.74236 13.9417 4.30291 12.4957 6.92295C11.8514 8.08264 10.7061 8.84147 9.66091 9.18508C7.02655 10.1157 4.93626 12.4351 4.66424 15.5132C4.52107 16.9736 3.67633 18.1047 3.03206 18.7489C1.28537 20.4813 0.555176 22.5143 0.555176 24.6046V24.7048C4.80737 20.2808 10.5486 16.2434 17.3063 13.2082C27.3999 8.68398 37.6509 7.36678 45.5254 8.98462C44.652 8.58374 43.7501 7.89651 43.2203 6.92295C41.7743 4.30291 38.9252 2.74236 35.6752 3.10029C34.3293 3.24346 33.0122 2.9141 32.1388 2.31278C30.9075 1.48238 29.5331 0.967049 27.858 0.967049C26.1686 0.95273 24.7941 1.46807 23.5772 2.31278Z" fill="url(#paint0_linear_1_7660)"/>
<path d="M17.2918 13.1939C10.5341 16.2292 4.80728 20.2666 0.540771 24.6906C0.59804 28.7853 3.64758 32.1499 7.59912 32.6939C11.9802 27.4681 18.3942 22.6289 26.1971 19.1355C34.816 15.2699 43.5638 13.7523 50.837 14.3965C50.2213 11.8767 48.3314 9.98692 46.012 9.18516C45.8402 9.12789 45.6828 9.05629 45.4966 8.9847C43.3491 8.54087 41.0154 8.31175 38.5671 8.31175C32.0528 8.29743 24.6365 9.88668 17.2918 13.1939Z" fill="url(#paint1_linear_1_7660)"/>
<path d="M26.2132 19.1192C18.4105 22.6152 11.9961 27.459 7.6084 32.6878C7.9732 32.7384 8.34813 32.7587 8.7332 32.7587H20.4676C21.5924 32.7587 22.4841 33.6909 22.4841 34.8056V35.2718C22.4841 37.1464 20.6297 37.3997 20.6297 37.3997L11.0841 39.0414C10.7497 39.0414 10.4559 39.3251 10.4559 39.6697V40.835H45.2132V39.6697C45.2132 39.3251 44.9193 39.0414 44.5849 39.0414L35.0292 37.3997C35.0292 37.3997 33.1748 37.1464 33.1748 35.2718V34.8056C33.1748 33.6808 34.0767 32.7587 35.1913 32.7587H46.9561C51.4655 32.7587 55.1236 29.1006 55.1236 24.5811C55.1236 22.5038 54.4041 20.467 52.6612 18.7342C52.0228 18.0856 51.1615 16.9507 51.0297 15.4915C50.9892 15.1064 50.9284 14.7416 50.8372 14.387C43.5817 13.7283 34.8367 15.2483 26.2132 19.1192Z" fill="#069A4D"/>
<defs>
<linearGradient id="paint0_linear_1_7660" x1="34.7299" y1="-0.645816" x2="-1.91415" y2="44.606" gradientUnits="userSpaceOnUse">
<stop stop-color="#66C430"/>
<stop offset="1" stop-color="#069A4D"/>
</linearGradient>
<linearGradient id="paint1_linear_1_7660" x1="42.8851" y1="-1.63628" x2="-0.808414" y2="52.3205" gradientUnits="userSpaceOnUse">
<stop stop-color="#4DBD38"/>
<stop offset="1" stop-color="#069A4D"/>
</linearGradient>
</defs>
</svg>
